<?xml version="1.0" encoding="UTF-8"?>
<svg version="1.1" xmlns="http://www.w3.org/2000/svg" width="677" height="676">
<path d="M0 0 C0.89540181 -0.00301597 1.79080362 -0.00603194 2.71333882 -0.0091393 C4.18575906 -0.00648509 4.18575906 -0.00648509 5.68792516 -0.00377727 C6.73663585 -0.0058299 7.78534655 -0.00788253 8.86583635 -0.00999737 C12.40928833 -0.01568935 15.9527017 -0.01420741 19.49615747 -0.0127914 C22.05057214 -0.01537377 24.6049864 -0.01838657 27.15940011 -0.0217948 C33.46238448 -0.02938059 39.76536038 -0.03156815 46.06834883 -0.03212385 C53.61592375 -0.03303692 61.16349081 -0.03970276 68.71106235 -0.04647068 C86.95438338 -0.06253883 105.19770357 -0.06843483 123.4410304 -0.07321942 C132.06941291 -0.0755545 140.69779475 -0.07915705 149.32617674 -0.0829148 C178.85551883 -0.09575086 208.38486055 -0.10647014 237.91420537 -0.1099174 C239.76826036 -0.11013904 241.62231534 -0.11036082 243.47637032 -0.11058275 C245.33493216 -0.1108034 247.193494 -0.11102388 249.05205584 -0.1112442 C252.78072224 -0.11168676 256.50938865 -0.11213387 260.23805505 -0.11258388 C261.62479619 -0.11274796 261.62479619 -0.11274796 263.0395523 -0.11291536 C293.02104508 -0.11654656 323.00251369 -0.1324687 352.98399721 -0.15577424 C384.67385166 -0.18036276 416.36369229 -0.19408978 448.05355656 -0.19528532 C451.53141056 -0.19545678 455.00926455 -0.19567221 458.48711854 -0.19591975 C459.77165928 -0.19600341 459.77165928 -0.19600341 461.08215033 -0.19608875 C474.8714491 -0.19724003 488.66072309 -0.2082686 502.45001349 -0.22280681 C516.30665607 -0.23716355 530.16326685 -0.24041344 544.01991483 -0.23236683 C552.25423844 -0.22790672 560.48845946 -0.23178638 568.72276962 -0.24760534 C574.86825814 -0.25848762 581.01364051 -0.25372632 587.15912692 -0.24283347 C589.6477123 -0.24086726 592.13630789 -0.24399722 594.62487891 -0.25267783 C598.00312397 -0.26371773 601.3808466 -0.25631871 604.75907689 -0.2442863 C605.72898455 -0.25188149 606.69889221 -0.25947669 607.69819102 -0.26730204 C615.03986041 -0.21071356 621.62882289 0.72433143 627.41310388 5.5026505 C633.61439673 13.16307108 633.6868002 19.99515388 633.66953164 29.50795007 C633.67261059 31.08194508 633.67261059 31.08194508 633.67575175 32.68773797 C633.68142838 36.22125344 633.67996367 39.75473002 633.67854577 43.28824925 C633.68112902 45.84026523 633.68414206 48.39228081 633.68754917 50.94429582 C633.69477936 57.23358532 633.69732202 63.52286258 633.69787823 69.81215575 C633.69879226 77.34494915 633.70546089 84.8777347 633.71222505 92.41052472 C633.72828226 110.61539827 633.73418771 128.82027097 633.7389738 147.02515032 C633.7413097 155.63606589 633.74491231 164.24698079 633.74866918 172.85789583 C633.76150351 202.33088421 633.77222353 231.80387222 633.77567178 261.27686334 C633.77589341 263.12683968 633.7761152 264.97681603 633.77633713 266.82679237 C633.77655777 268.68124194 633.77677825 270.5356915 633.77699858 272.39014107 C633.77744113 276.11050554 633.77788825 279.83087001 633.77833825 283.55123448 C633.77844764 284.47366796 633.77855704 285.39610144 633.77866974 286.34648745 C633.78230154 316.26611234 633.79822683 346.18571302 633.82152862 376.10532864 C633.846117 407.73471269 633.85984413 439.36408291 633.8610397 470.99347681 C633.86121115 474.46455928 633.86142658 477.93564175 633.86167413 481.40672421 C633.8617299 482.26140855 633.86178567 483.11609289 633.86184313 483.99667675 C633.86299433 497.75797063 633.87402209 511.51923968 633.88856119 525.28052517 C633.9029176 539.10779829 633.90616798 552.93503953 633.89812121 566.76231805 C633.89366117 574.97887771 633.89754053 583.19533456 633.91335971 591.41188073 C633.92424208 597.54406195 633.91948065 603.67613679 633.90858784 609.8083159 C633.90662167 612.29145796 633.90975146 614.77461025 633.91843221 617.25773791 C633.92947238 620.62861389 633.92207291 623.99896632 633.91004068 627.36982751 C633.91763587 628.33755913 633.92523106 629.30529075 633.93305641 630.30234757 C633.87644419 637.63135725 632.77998631 644.54695737 628.22560388 650.5026505 C623.26353321 655.34932418 617.91712501 657.25071848 611.09889585 657.255301 C610.20856296 657.25831697 609.31823008 657.26133294 608.40091741 657.2644403 C607.4249745 657.26267083 606.44903159 657.26090136 605.44351465 657.25907826 C603.87939447 657.26215721 603.87939447 657.26215721 602.28367591 657.26529837 C598.76048203 657.2709902 595.23732696 657.26950842 591.71412927 657.26809239 C589.17422708 657.27067479 586.63432529 657.27368759 584.09442407 657.27709579 C577.82723566 657.2843346 571.56005953 657.28686915 565.29286743 657.28742485 C557.78799341 657.28833794 550.28312728 657.29500388 542.77825665 657.30177167 C524.63687128 657.31784059 506.49548675 657.32373616 488.35409555 657.32852042 C479.77255887 657.33085568 471.19102285 657.33445827 462.60948668 657.3382158 C433.23662297 657.35105266 403.86375964 657.36177129 374.49089319 657.3652184 C372.64659327 657.36544003 370.80229336 657.36566182 368.95799345 657.36588375 C367.10922072 657.36610439 365.260448 657.36632488 363.41167527 657.3665452 C359.70267882 657.36698775 355.99368236 657.36743487 352.28468591 657.36788487 C350.90525998 657.36804896 350.90525998 657.36804896 349.49796686 657.36821636 C319.68294878 657.37184656 289.86795502 657.3877645 260.05294625 657.41107524 C228.53456877 657.4356727 197.01620518 657.44939122 165.49781781 657.45058632 C162.03760351 657.45075777 158.57738922 657.4509732 155.11717492 657.45122075 C153.83916177 657.4513044 153.83916177 657.4513044 152.53533017 657.45138975 C138.82472979 657.45254033 125.11415436 657.46356309 111.4035624 657.47810781 C97.62080157 657.49247617 83.83807271 657.49570789 70.05530643 657.48766783 C61.86827086 657.48321301 53.68133853 657.48706623 45.49431653 657.50290633 C39.37869792 657.51381117 33.26319716 657.50901057 27.14757413 657.49813446 C24.67508599 657.49617249 22.20258753 657.49927892 19.73011392 657.50797883 C16.36637183 657.51906502 13.00315008 657.51158628 9.63942224 657.4995873 C8.68220865 657.50718249 7.72499507 657.51477768 6.73877501 657.52260303 C-1.14687047 657.46198469 -10.56559588 656.78881666 -17.02439612 651.8151505 C-21.65868527 646.70554964 -23.58501953 641.45104036 -23.58954662 634.65062898 C-23.59256259 633.75184789 -23.59557856 632.85306679 -23.59868592 631.92704991 C-23.59691645 630.94165603 -23.59514698 629.95626215 -23.59332389 628.94100785 C-23.59537652 627.88832122 -23.59742915 626.83563459 -23.59954399 625.75104836 C-23.60523607 622.19409099 -23.60375402 618.63717207 -23.60233802 615.08021092 C-23.60492038 612.51612127 -23.60793318 609.95203202 -23.61134142 607.38794333 C-23.61892724 601.06109405 -23.62111477 594.73425322 -23.62167047 588.40739987 C-23.62258353 580.8313577 -23.62924929 573.25532334 -23.6360173 565.67928453 C-23.65208495 547.3680064 -23.65798123 529.05672909 -23.66276604 510.74544518 C-23.665101 502.08583212 -23.66870352 493.42621973 -23.67246142 484.76660719 C-23.68529696 455.13294618 -23.69601666 425.49928554 -23.69946402 395.86562181 C-23.69968566 394.00506344 -23.69990744 392.14450508 -23.70012937 390.28394671 C-23.70035002 388.4188588 -23.7005705 386.55377089 -23.70079082 384.68868297 C-23.70123338 380.94690327 -23.70168049 377.20512356 -23.7021305 373.46334386 C-23.70223989 372.53559856 -23.70234928 371.60785327 -23.70246198 370.65199448 C-23.70609385 340.55951856 -23.72201876 310.46706672 -23.74532086 280.37460003 C-23.76990347 248.5704276 -23.78363611 216.76626894 -23.78483194 184.96208674 C-23.7850034 181.47247294 -23.78521883 177.98285915 -23.78546637 174.49324536 C-23.78552214 173.63398373 -23.78557791 172.77472209 -23.78563537 171.88942222 C-23.78678712 158.04765786 -23.79781951 144.20591816 -23.81235343 130.36416214 C-23.82670251 116.45826505 -23.8299644 102.55239966 -23.82191345 88.64649721 C-23.81744984 80.38064825 -23.82134694 72.11490142 -23.83715196 63.84906583 C-23.84801938 57.68366294 -23.84328406 51.51836603 -23.83238009 45.35296527 C-23.83041108 42.85364839 -23.83355653 40.35432139 -23.84222445 37.85501876 C-23.85323393 34.46710506 -23.84588756 31.07971516 -23.83383292 27.69181657 C-23.84142811 26.71344619 -23.84902331 25.73507581 -23.85684866 24.72705784 C-23.79664549 16.93042959 -22.16018269 10.82593707 -16.46189612 5.1276505 C-11.17463061 1.88988172 -6.23063962 0.00416363 0 0 Z M17.53810388 41.1276505 C17.53810388 230.8776505 17.53810388 420.6276505 17.53810388 616.1276505 C207.28810388 616.1276505 397.03810388 616.1276505 592.53810388 616.1276505 C592.53810388 426.3776505 592.53810388 236.6276505 592.53810388 41.1276505 C402.78810388 41.1276505 213.03810388 41.1276505 17.53810388 41.1276505 Z " fill="#FFFFFF" transform="translate(35.46189612150192,11.872349500656128)"/>
<path d="M0 0 C0.59941406 0.30389648 1.19882812 0.60779297 1.81640625 0.92089844 C28.77734341 14.76316886 49.41298463 37.05285915 59.15820312 66.06420898 C67.80669164 93.30372076 64.75645211 120.28905421 51.6875 145.625 C40.62537895 165.47947645 25.42438813 179.69016116 6 191 C4.98808594 191.59167969 3.97617187 192.18335938 2.93359375 192.79296875 C-20.95894154 205.71952818 -48.41478288 206.45134357 -74 198.875 C-102.21027442 189.95323394 -125.09681003 169.12767276 -139.01953125 143.36328125 C-149.13578684 123.55261658 -153.02533679 100.84669395 -149 79 C-148.87882812 78.3311377 -148.75765625 77.66227539 -148.6328125 76.97314453 C-143.42945308 49.78160938 -126.39618154 25.07860976 -103.74609375 9.4921875 C-72.78845209 -11.32817093 -34.15638818 -17.53728533 0 0 Z " fill="#FFFFFF" transform="translate(495,382)"/>
<path d="M0 0 C0.983896 -0.00573832 0.983896 -0.00573832 1.98766869 -0.01159257 C4.18393338 -0.02190504 6.37993577 -0.0179338 8.57621765 -0.01396179 C10.15163922 -0.01830932 11.72705867 -0.02349261 13.30247498 -0.02944946 C17.58152107 -0.04284835 21.86047888 -0.043417 26.13954186 -0.04088616 C29.71299202 -0.03981675 33.28642429 -0.0446992 36.85987061 -0.04949158 C45.2925142 -0.06059049 53.72511326 -0.06102245 62.15776062 -0.05497742 C70.85214586 -0.04894045 79.54636916 -0.0612407 88.24072677 -0.08254749 C95.70838143 -0.10017403 103.1759846 -0.10616306 110.64365929 -0.10290974 C115.10232105 -0.10109795 119.56086737 -0.10372243 124.01951027 -0.11762428 C128.21465559 -0.13021465 132.40954903 -0.12824714 136.60469055 -0.11521339 C138.14174676 -0.11285045 139.67882075 -0.11557221 141.21585655 -0.12383652 C143.31981306 -0.13433043 145.42292853 -0.12618316 147.52685547 -0.11352539 C148.70247701 -0.11369313 149.87809855 -0.11386087 151.08934498 -0.1140337 C155.60462934 0.38885937 159.64042685 1.49459599 162.99485874 4.76139545 C166.47650621 11.69406913 166.00802236 19.12028061 165.95561218 26.68525696 C165.95939966 28.24481188 165.96490323 29.80436342 165.97198486 31.36390686 C165.98589745 35.58072078 165.974801 39.79712479 165.95827365 44.01391578 C165.94438462 48.43315914 165.95088733 52.85237963 165.95440674 57.27163696 C165.95710497 64.68838582 165.9436637 72.10497248 165.92045593 79.52168274 C165.89381917 88.09351314 165.89210986 96.66507292 165.9038443 105.23693055 C165.91462448 113.49161531 165.90843503 121.74620229 165.89428902 130.00087929 C165.88853426 133.51074857 165.8886078 137.02054617 165.89335442 140.53041649 C165.8981282 144.6616204 165.88800609 148.79252799 165.86639977 152.92367554 C165.86083826 154.43898837 165.86036078 155.95432973 165.86535263 157.46964455 C165.87131488 159.53909187 165.85878411 161.60763596 165.84158325 163.67700195 C165.83793841 165.4132837 165.83793841 165.4132837 165.83421993 167.18464184 C165.29890882 171.51431248 163.71395898 174.1581476 160.4539032 177.01069641 C156.67154571 179.37466984 153.51493625 179.38986846 149.15541077 179.40113831 C148.19328908 179.40559499 148.19328908 179.40559499 147.2117306 179.41014171 C145.05855492 179.41882563 142.90543486 179.42033671 140.75224304 179.42182922 C139.20977154 179.42645776 137.66730118 179.43148247 136.12483215 179.43687439 C131.93032484 179.45000034 127.73583353 179.45644418 123.54130888 179.46088505 C120.91919076 179.46381655 118.29707701 179.46792159 115.67496109 179.47238922 C107.46675524 179.48606707 99.25855938 179.4957313 91.05034292 179.49959111 C81.5837152 179.5040673 72.1172322 179.52159355 62.65064847 179.55059171 C55.32906118 179.57223822 48.0075145 179.58229704 40.68589556 179.58363223 C36.3154517 179.58467849 31.94514382 179.59054761 27.57473373 179.60845184 C23.45922392 179.62498308 19.34395153 179.62706364 15.22842026 179.61831284 C13.72283795 179.61754505 12.21724263 179.62185087 10.71169281 179.63177109 C1.87096102 179.68657804 -6.39511359 179.69468522 -13.9835968 174.63569641 C-18.83395605 167.26315035 -17.83188715 157.34161147 -17.80488586 148.88764954 C-17.80760057 147.45266544 -17.81116418 146.01768273 -17.81550598 144.58270264 C-17.8245753 140.70875274 -17.82110839 136.83491011 -17.81474781 132.96095848 C-17.80965942 128.8932658 -17.81438712 124.82558187 -17.81752014 120.75788879 C-17.82115154 113.92889265 -17.81638241 107.09993987 -17.80683899 100.27095032 C-17.79595603 92.39279788 -17.79948219 84.51474899 -17.8104918 76.63659906 C-17.81958826 69.85415849 -17.82083844 63.07174896 -17.81561446 56.28930426 C-17.81250771 52.24651233 -17.81204964 48.20376897 -17.81868744 44.16098022 C-17.82449468 40.35895031 -17.82040264 36.557053 -17.80889893 32.75503731 C-17.80627032 31.36556276 -17.8069864 29.97607692 -17.81142426 28.58660698 C-17.86491041 10.12870271 -17.86491041 10.12870271 -13.1710968 4.32319641 C-8.63794902 0.76143744 -5.80842214 0.01015243 0 0 Z " fill="#FFFFFF" transform="translate(131.5460968017578,212.7393035888672)"/>
<path d="M0 0 C1.33661603 -0.00350878 2.67322785 -0.00917586 4.00982666 -0.01681519 C7.61124586 -0.03096325 11.21189234 -0.01410214 14.81323743 0.00946999 C18.59797579 0.02970585 22.38268601 0.02369292 26.16746521 0.0213623 C32.51981209 0.02141573 38.8718601 0.04108796 45.22412109 0.07324219 C52.54966215 0.11014469 59.87481238 0.11891401 67.20043427 0.11194468 C74.27299326 0.10562207 81.34541943 0.11642536 88.41795158 0.13591003 C91.41653282 0.14404676 94.41504583 0.14680051 97.41363716 0.1452179 C100.94903377 0.14433374 104.48406366 0.15869615 108.0193634 0.18444443 C109.9223803 0.19492794 111.82545997 0.19095511 113.72850037 0.18643188 C121.4651556 0.26274415 129.13720292 0.40339565 134.93139648 6.05273438 C137.36134392 10.20389457 137.55813218 13.67471147 137.57183838 18.44674683 C137.57754852 19.6383844 137.58325867 20.83002197 137.58914185 22.05776978 C137.59081863 24.01376602 137.59081863 24.01376602 137.5925293 26.00927734 C137.5971596 27.39913057 137.60218455 28.78898252 137.60757446 30.17883301 C137.62067857 33.95160548 137.62713933 37.72436018 137.63158512 41.49715185 C137.63451858 43.85508939 137.63862387 46.21302209 137.64308929 48.57095718 C137.65675794 55.9510187 137.66642814 63.33106913 137.67029119 70.71114242 C137.6747729 79.22580847 137.69232862 87.74031407 137.72129178 96.25493133 C137.74291355 102.8401926 137.7529957 109.42540873 137.7543323 116.01070511 C137.75537982 119.94229755 137.76127645 123.87373902 137.77915192 127.80529404 C137.79564163 131.50386185 137.79778388 135.20216534 137.78901291 138.90075684 C137.78787664 140.90107139 137.80158636 142.90137722 137.81576538 144.90164185 C137.80741165 146.69755768 137.80741165 146.69755768 137.79888916 148.52975464 C137.80035572 149.56618544 137.80182228 150.60261623 137.80333328 151.67045403 C137.21451605 156.33236817 135.38755288 159.60595818 132.18139648 162.99023438 C128.53387192 165.1455898 126.63193925 165.17530674 122.43139648 164.61523438 C117.8590002 163.05299898 113.57963452 161.41105302 110.43139648 157.61523438 C110.43139648 156.95523438 110.43139648 156.29523438 110.43139648 155.61523438 C109.77139648 155.61523438 109.11139648 155.61523438 108.43139648 155.61523438 C108.43139648 154.95523438 108.43139648 154.29523438 108.43139648 153.61523438 C107.44139648 153.28523437 106.45139648 152.95523438 105.43139648 152.61523438 C102.74389648 150.17773438 102.74389648 150.17773438 100.43139648 147.61523438 C100.43139648 146.95523438 100.43139648 146.29523438 100.43139648 145.61523438 C99.77139648 145.61523438 99.11139648 145.61523438 98.43139648 145.61523438 C98.43139648 144.95523438 98.43139648 144.29523438 98.43139648 143.61523438 C97.58798706 143.268396 97.58798706 143.268396 96.72753906 142.91455078 C93.8349931 141.27774806 91.96517184 139.25176708 89.69311523 136.82617188 C88.33863281 135.41464844 88.33863281 135.41464844 86.95678711 133.97460938 C85.5333491 132.48313127 84.1160714 130.98719703 82.71191406 129.47753906 C81.34717592 128.01564359 79.95786006 126.57681578 78.56811523 125.13867188 C77.75044678 124.27161621 76.93277832 123.40456055 76.09033203 122.51123047 C73.505225 120.42331083 73.505225 120.42331083 70.18408203 119.80371094 C64.33610128 121.06834486 61.31038335 124.85295869 57.25170898 129.07617188 C55.97165482 130.36752548 55.97165482 130.36752548 54.66574097 131.68496704 C51.94582552 134.43741117 49.25147401 137.21348783 46.55639648 139.99023438 C44.71941578 141.85375356 42.88089105 143.71575206 41.04077148 145.57617188 C37.689328 148.97794646 34.34085671 152.38234782 31.01391602 155.80810547 C30.34441925 156.49649506 29.67492249 157.18488464 28.98513794 157.89413452 C27.35449093 159.54621462 27.35449093 159.54621462 26.43139648 161.61523438 C25.77139648 161.61523438 25.11139648 161.61523438 24.43139648 161.61523438 C24.10139648 162.60523438 23.77139648 163.59523438 23.43139648 164.61523438 C20.99389648 167.30273438 20.99389648 167.30273438 18.43139648 169.61523438 C17.77139648 169.61523438 17.11139648 169.61523438 16.43139648 169.61523438 C16.20446106 170.16683228 15.97752563 170.71843018 15.74371338 171.28674316 C14.04001963 174.30966844 11.88701906 176.41415419 9.43432617 178.87109375 C8.92673264 179.38219193 8.4191391 179.8932901 7.89616394 180.4198761 C6.22018913 182.10463797 4.53702144 183.78199558 2.85327148 185.45898438 C1.681938 186.63166579 0.51090149 187.8046439 -0.65985107 188.97790527 C-3.11463882 191.43564054 -5.57300418 193.88972542 -8.03393555 196.34130859 C-11.17899996 199.47500396 -14.31503398 202.61755825 -17.44841385 205.76293182 C-19.86580499 208.18757306 -22.28796824 210.607402 -24.71157074 213.02583313 C-25.86919493 214.18212822 -27.0253493 215.33989684 -28.17996979 216.49919128 C-29.7998228 218.12415852 -31.42601154 219.74251837 -33.05395508 221.359375 C-33.97613831 222.27996704 -34.89832153 223.20055908 -35.84844971 224.14904785 C-42.90052895 230.54270939 -42.90052895 230.54270939 -47.44360352 230.74023438 C-54.63788382 228.15029347 -60.29242547 222.22034605 -65.65844727 216.93164062 C-66.28844131 216.31304672 -66.91843536 215.69445282 -67.56752014 215.05711365 C-68.88352483 213.75984023 -70.19677091 212.45976278 -71.50732422 211.15698242 C-73.51191357 209.17198109 -75.53684863 207.20931503 -77.56274414 205.24609375 C-78.84595447 203.97593075 -80.12790136 202.70448978 -81.40844727 201.43164062 C-82.01252914 200.85225235 -82.61661102 200.27286407 -83.23899841 199.67591858 C-85.89471329 196.99146747 -87.48581101 194.8040415 -89.01611328 191.31420898 C-88.33507984 185.68500135 -84.98364229 182.92746745 -81.02945709 179.0485611 C-79.51981343 177.56736364 -78.03676337 176.06303264 -76.55682373 174.55218506 C-73.75416092 171.70171621 -70.92611552 168.87786704 -68.08962631 166.06109238 C-66.20263707 164.18708194 -64.31897832 162.30977702 -62.43606567 160.43167114 C-58.44141454 156.44833958 -54.44281389 152.46898781 -50.44360352 148.49023438 C-45.79614753 143.86650557 -41.15039425 139.24109135 -36.50885391 134.61142349 C-34.66591757 132.7749001 -32.81996423 130.94144822 -30.97384644 129.10812378 C-25.87037858 124.02662474 -20.85733236 118.92957531 -16.18234253 113.44491577 C-13.06396682 109.90925482 -9.64379194 106.67153939 -6.26391602 103.38867188 C-4.69562067 101.84760237 -3.12792958 100.30591772 -1.56079102 98.76367188 C0.88261052 96.36367351 3.32953395 93.96777099 5.78686523 91.58203125 C8.17726002 89.25814188 10.55149886 86.91872832 12.92358398 84.57617188 C13.66204559 83.86665375 14.4005072 83.15713562 15.16134644 82.42611694 C18.11075512 79.49239078 20.15498934 77.3763166 21.58813477 73.43017578 C21.24311918 67.23386781 16.58435219 63.48407758 12.40795898 59.36132812 C11.82476898 58.77859634 11.24157898 58.19586456 10.64071655 57.59547424 C9.41087621 56.36864423 8.17861708 55.14423471 6.9440918 53.92211914 C5.06429389 52.06055518 3.19259938 50.19113626 1.32202148 48.3203125 C0.12197077 47.1251788 -1.07853516 45.93050198 -2.27954102 44.73632812 C-2.83491547 44.1820665 -3.39028992 43.62780487 -3.9624939 43.05674744 C-6.38838849 40.66002694 -8.76627702 38.46098231 -11.46166992 36.35766602 C-12.15695801 35.78266357 -12.85224609 35.20766113 -13.56860352 34.61523438 C-13.56860352 33.95523438 -13.56860352 33.29523438 -13.56860352 32.61523438 C-14.22860352 32.61523438 -14.88860352 32.61523438 -15.56860352 32.61523438 C-15.56860352 31.95523438 -15.56860352 31.29523438 -15.56860352 30.61523438 C-16.22860352 30.61523438 -16.88860352 30.61523438 -17.56860352 30.61523438 C-17.56860352 29.95523438 -17.56860352 29.29523438 -17.56860352 28.61523438 C-18.17317383 28.36128906 -18.77774414 28.10734375 -19.40063477 27.84570312 C-24.10630346 25.17491819 -26.16466035 19.99339341 -27.63110352 14.99023438 C-27.54725497 10.4624129 -26.66848513 8.9313868 -23.56860352 5.61523438 C-15.98988888 0.41833952 -8.97842059 -0.09674001 0 0 Z " fill="#FFFFFF" transform="translate(429.568603515625,113.384765625)"/>
</svg>
